<svg width="512" height="512" viewBox="0 0 512 512" fill="none" xmlns="http://www.w3.org/2000/svg">
<circle cx="256" cy="256" r="256" fill="#FCFF71"/>
<circle cx="256" cy="256" r="225" fill="#FEFFBF"/>
<rect x="102" y="195" width="307" height="156" rx="12" fill="#292929"/>
<rect x="102" y="178" width="307" height="156" rx="12" fill="black"/>
<circle cx="204" cy="259" r="45" fill="#FEFFBF"/>
<circle cx="307" cy="259" r="45" fill="#FEFFBF"/>
<path d="M204.178 375.182L224.905 433.955H225.723L246.45 375.182H255.314L229.678 445H220.95L195.314 375.182H204.178ZM266.189 445V375.182H289.78C295.234 375.182 299.712 376.114 303.212 377.977C306.712 379.818 309.303 382.352 310.984 385.58C312.666 388.807 313.507 392.477 313.507 396.591C313.507 400.705 312.666 404.352 310.984 407.534C309.303 410.716 306.723 413.216 303.246 415.034C299.768 416.83 295.325 417.727 289.916 417.727H270.825V410.091H289.643C293.371 410.091 296.371 409.545 298.643 408.455C300.939 407.364 302.598 405.818 303.621 403.818C304.666 401.795 305.189 399.386 305.189 396.591C305.189 393.795 304.666 391.352 303.621 389.261C302.575 387.17 300.905 385.557 298.609 384.42C296.314 383.261 293.28 382.682 289.507 382.682H274.643V445H266.189ZM299.053 413.636L316.234 445H306.416L289.507 413.636H299.053Z" fill="black"/>
</svg>

